<?xml version="1.0" standalone="no"?>
<!DOCTYPE svg PUBLIC "-//W3C//DTD SVG 20010904//EN"
 "http://www.w3.org/TR/2001/REC-SVG-20010904/DTD/svg10.dtd">
<svg version="1.0" xmlns="http://www.w3.org/2000/svg"
 width="500.000000pt" height="500.000000pt" viewBox="0 0 500.000000 500.000000"
 preserveAspectRatio="xMidYMid meet">

<g transform="translate(0.000000,500.000000) scale(0.100000,-0.100000)"
fill="#000000" stroke="none">
<path d="M2475 4894 c-176 -31 -207 -45 -1025 -442 -91 -44 -223 -108 -295
-142 -405 -193 -494 -248 -636 -389 -177 -177 -275 -359 -323 -601 -36 -182
-31 -345 29 -865 19 -165 46 -408 60 -540 69 -650 102 -779 260 -1016 148
-222 350 -376 599 -458 133 -44 217 -63 551 -126 165 -31 435 -83 600 -116
421 -84 523 -99 651 -99 190 0 342 35 506 115 118 58 190 107 277 190 129 121
198 228 401 615 103 195 150 283 315 580 174 314 207 375 248 461 156 327 182
681 71 975 -78 208 -195 365 -589 784 -132 140 -197 212 -361 395 -374 421
-545 559 -786 639 -163 54 -385 70 -553 40z m-27 -2042 l2 -360 33 -27 c50
-41 60 -49 90 -68 l27 -17 0 357 0 358 25 -26 25 -25 -2 -382 -3 -382 -62 48
c-33 26 -71 54 -83 62 -24 16 -40 28 -111 87 -25 21 -56 45 -69 53 -12 8 -32
23 -44 33 -28 23 -199 154 -311 239 -49 37 -97 73 -105 81 -36 31 -99 77 -106
77 -5 0 -8 -39 -6 -87 3 -96 5 -98 91 -163 18 -14 70 -54 116 -90 46 -36 127
-99 180 -140 53 -41 136 -105 183 -143 48 -37 128 -99 177 -137 163 -127 155
-119 155 -155 0 -18 7 -38 15 -45 13 -11 15 -8 15 20 l0 33 46 -46 c130 -132
400 -186 606 -121 134 42 205 102 239 200 62 176 -37 343 -259 438 -34 14 -88
37 -121 51 -32 14 -63 25 -68 25 -5 0 -28 9 -51 20 -22 11 -45 20 -50 20 -5 0
-29 20 -54 44 -38 36 -48 53 -53 90 -15 101 19 161 107 189 30 9 77 17 105 17
53 0 146 -24 177 -45 16 -12 24 -10 60 12 76 47 79 52 48 78 -15 12 -54 35
-87 51 -57 27 -67 29 -200 29 -134 0 -143 -1 -199 -29 -113 -54 -178 -149
-180 -261 -2 -136 66 -228 226 -306 51 -26 104 -50 118 -54 14 -4 50 -18 80
-32 190 -87 234 -123 245 -203 13 -95 -15 -152 -99 -197 -48 -25 -59 -27 -176
-27 -119 0 -128 1 -190 30 -67 32 -144 97 -137 117 2 6 10 15 19 21 13 8 25 2
55 -27 79 -78 251 -109 367 -68 72 25 93 43 107 91 26 85 -53 153 -266 230
-65 24 -183 79 -229 107 -58 35 -124 108 -150 165 -36 78 -36 197 -2 277 59
137 226 232 408 231 70 -1 218 -33 229 -51 5 -8 9 -11 9 -7 0 12 96 -50 129
-84 17 -17 28 -35 25 -40 -5 -8 -117 -85 -175 -120 -26 -16 -28 -16 -51 5 -37
36 -74 47 -158 47 -92 0 -117 -9 -148 -54 -26 -38 -28 -66 -7 -106 22 -43 83
-77 260 -147 214 -84 323 -165 376 -279 25 -53 29 -75 29 -148 0 -217 -136
-347 -393 -377 -182 -21 -360 14 -482 94 -53 35 -64 45 -106 94 -19 23 -80 76
-134 117 -105 79 -137 104 -158 121 -11 9 -88 69 -142 110 -75 56 -173 132
-185 143 -8 6 -76 59 -150 115 l-135 104 -5 -359 -5 -358 -76 57 c-42 32 -99
76 -128 98 l-51 40 0 517 c0 285 4 518 9 518 4 0 16 -9 26 -20 10 -11 23 -20
29 -20 7 0 19 -8 28 -17 9 -10 46 -40 83 -68 37 -27 106 -81 154 -118 47 -37
99 -78 115 -90 15 -12 41 -32 56 -44 15 -13 32 -23 38 -23 6 0 12 -4 14 -9 3
-9 111 -95 233 -186 44 -33 86 -65 93 -72 7 -7 18 -13 23 -13 5 0 9 142 9 351
l0 351 23 -14 22 -15 3 -361z"/>
<path d="M1540 3025 c0 -52 4 -95 9 -95 5 0 36 -22 68 -50 32 -27 61 -50 64
-50 8 0 17 147 11 172 -4 15 -131 118 -146 118 -3 0 -6 -43 -6 -95z"/>
<path d="M1540 2541 l0 -330 51 -38 c28 -21 62 -48 75 -60 l24 -22 0 333 0
332 -62 50 c-35 28 -69 54 -75 58 -10 6 -13 -61 -13 -323z"/>
</g>
</svg>
